<svg width="167" height="16" viewBox="0 0 167 16" fill="none" xmlns="http://www.w3.org/2000/svg">
<path d="M8.99805 10.3223H11.6836C11.612 11.2728 11.3483 12.1159 10.8926 12.8516C10.4368 13.5807 9.80208 14.1536 8.98828 14.5703C8.17448 14.987 7.18815 15.1953 6.0293 15.1953C5.13737 15.1953 4.33333 15.0391 3.61719 14.7266C2.90755 14.4076 2.29883 13.9551 1.79102 13.3691C1.28971 12.7767 0.905599 12.0671 0.638672 11.2402C0.371745 10.4069 0.238281 9.47266 0.238281 8.4375V7.35352C0.238281 6.31836 0.375 5.38411 0.648438 4.55078C0.921875 3.71745 1.3125 3.00781 1.82031 2.42188C2.33464 1.82943 2.94987 1.3737 3.66602 1.05469C4.38867 0.735677 5.19596 0.576172 6.08789 0.576172C7.24674 0.576172 8.22656 0.791016 9.02734 1.2207C9.82812 1.64388 10.4499 2.22656 10.8926 2.96875C11.3353 3.71094 11.6022 4.5638 11.6934 5.52734H9.00781C8.95573 4.92839 8.82552 4.42057 8.61719 4.00391C8.41536 3.58724 8.10938 3.27148 7.69922 3.05664C7.29557 2.83529 6.75846 2.72461 6.08789 2.72461C5.56706 2.72461 5.10807 2.82227 4.71094 3.01758C4.32031 3.21289 3.99479 3.50586 3.73438 3.89648C3.47396 4.2806 3.27865 4.76237 3.14844 5.3418C3.01823 5.91471 2.95312 6.57878 2.95312 7.33398V8.4375C2.95312 9.16016 3.01172 9.80794 3.12891 10.3809C3.24609 10.9538 3.42839 11.4388 3.67578 11.8359C3.92318 12.2331 4.24219 12.5358 4.63281 12.7441C5.02344 12.9525 5.48893 13.0566 6.0293 13.0566C6.68685 13.0566 7.2207 12.9525 7.63086 12.7441C8.04753 12.5358 8.36328 12.2298 8.57812 11.8262C8.79948 11.4225 8.93945 10.9212 8.99805 10.3223ZM19.3887 12.7539V7.88086C19.3887 7.52279 19.3268 7.21354 19.2031 6.95312C19.0794 6.69271 18.8906 6.49089 18.6367 6.34766C18.3828 6.20443 18.0605 6.13281 17.6699 6.13281C17.3249 6.13281 17.0221 6.19141 16.7617 6.30859C16.5078 6.42578 16.3125 6.5918 16.1758 6.80664C16.0391 7.01497 15.9707 7.25586 15.9707 7.5293H13.3828C13.3828 7.0931 13.487 6.67969 13.6953 6.28906C13.9036 5.89193 14.1999 5.54036 14.584 5.23438C14.9746 4.92188 15.4401 4.67773 15.9805 4.50195C16.5273 4.32617 17.1393 4.23828 17.8164 4.23828C18.6172 4.23828 19.3301 4.375 19.9551 4.64844C20.5866 4.91536 21.0814 5.31901 21.4395 5.85938C21.804 6.39974 21.9863 7.08008 21.9863 7.90039V12.5098C21.9863 13.0371 22.0189 13.4896 22.084 13.8672C22.1556 14.2383 22.2598 14.5605 22.3965 14.834V15H19.7695C19.6458 14.7331 19.5514 14.3945 19.4863 13.9844C19.4212 13.5677 19.3887 13.1576 19.3887 12.7539ZM19.75 8.56445L19.7695 10.0977H18.1387C17.735 10.0977 17.3802 10.14 17.0742 10.2246C16.7682 10.3027 16.5176 10.4199 16.3223 10.5762C16.127 10.7259 15.9805 10.9082 15.8828 11.123C15.7852 11.3314 15.7363 11.569 15.7363 11.8359C15.7363 12.0964 15.7949 12.3307 15.9121 12.5391C16.0358 12.7474 16.2116 12.9134 16.4395 13.0371C16.6738 13.1543 16.9473 13.2129 17.2598 13.2129C17.7155 13.2129 18.1126 13.1217 18.4512 12.9395C18.7897 12.7507 19.0534 12.5228 19.2422 12.2559C19.431 11.9889 19.5319 11.735 19.5449 11.4941L20.2871 12.6074C20.196 12.8743 20.0592 13.1576 19.877 13.457C19.6947 13.7565 19.4603 14.0365 19.1738 14.2969C18.8874 14.5573 18.5423 14.7721 18.1387 14.9414C17.735 15.1107 17.2663 15.1953 16.7324 15.1953C16.0488 15.1953 15.4368 15.0586 14.8965 14.7852C14.3561 14.5117 13.9297 14.1374 13.6172 13.6621C13.3047 13.1868 13.1484 12.6465 13.1484 12.041C13.1484 11.4811 13.2526 10.9863 13.4609 10.5566C13.6693 10.127 13.9785 9.76562 14.3887 9.47266C14.7988 9.17318 15.3066 8.94857 15.9121 8.79883C16.5241 8.64258 17.224 8.56445 18.0117 8.56445H19.75ZM27.0449 0V15H24.457V0H27.0449ZM35.3262 12.7539V7.88086C35.3262 7.52279 35.2643 7.21354 35.1406 6.95312C35.0169 6.69271 34.8281 6.49089 34.5742 6.34766C34.3203 6.20443 33.998 6.13281 33.6074 6.13281C33.2624 6.13281 32.9596 6.19141 32.6992 6.30859C32.4453 6.42578 32.25 6.5918 32.1133 6.80664C31.9766 7.01497 31.9082 7.25586 31.9082 7.5293H29.3203C29.3203 7.0931 29.4245 6.67969 29.6328 6.28906C29.8411 5.89193 30.1374 5.54036 30.5215 5.23438C30.9121 4.92188 31.3776 4.67773 31.918 4.50195C32.4648 4.32617 33.0768 4.23828 33.7539 4.23828C34.5547 4.23828 35.2676 4.375 35.8926 4.64844C36.5241 4.91536 37.0189 5.31901 37.377 5.85938C37.7415 6.39974 37.9238 7.08008 37.9238 7.90039V12.5098C37.9238 13.0371 37.9564 13.4896 38.0215 13.8672C38.0931 14.2383 38.1973 14.5605 38.334 14.834V15H35.707C35.5833 14.7331 35.4889 14.3945 35.4238 13.9844C35.3587 13.5677 35.3262 13.1576 35.3262 12.7539ZM35.6875 8.56445L35.707 10.0977H34.0762C33.6725 10.0977 33.3177 10.14 33.0117 10.2246C32.7057 10.3027 32.4551 10.4199 32.2598 10.5762C32.0645 10.7259 31.918 10.9082 31.8203 11.123C31.7227 11.3314 31.6738 11.569 31.6738 11.8359C31.6738 12.0964 31.7324 12.3307 31.8496 12.5391C31.9733 12.7474 32.1491 12.9134 32.377 13.0371C32.6113 13.1543 32.8848 13.2129 33.1973 13.2129C33.653 13.2129 34.0501 13.1217 34.3887 12.9395C34.7272 12.7507 34.9909 12.5228 35.1797 12.2559C35.3685 11.9889 35.4694 11.735 35.4824 11.4941L36.2246 12.6074C36.1335 12.8743 35.9967 13.1576 35.8145 13.457C35.6322 13.7565 35.3978 14.0365 35.1113 14.2969C34.8249 14.5573 34.4798 14.7721 34.0762 14.9414C33.6725 15.1107 33.2038 15.1953 32.6699 15.1953C31.9863 15.1953 31.3743 15.0586 30.834 14.7852C30.2936 14.5117 29.8672 14.1374 29.5547 13.6621C29.2422 13.1868 29.0859 12.6465 29.0859 12.041C29.0859 11.4811 29.1901 10.9863 29.3984 10.5566C29.6068 10.127 29.916 9.76562 30.3262 9.47266C30.7363 9.17318 31.2441 8.94857 31.8496 8.79883C32.4616 8.64258 33.1615 8.56445 33.9492 8.56445H35.6875ZM40.2383 0H42.8262V12.666L42.5723 15H40.2383V0ZM49.623 9.60938V9.81445C49.623 10.6022 49.5352 11.3249 49.3594 11.9824C49.1901 12.64 48.9329 13.2096 48.5879 13.6914C48.2428 14.1667 47.8132 14.5378 47.2988 14.8047C46.791 15.0651 46.1953 15.1953 45.5117 15.1953C44.8607 15.1953 44.2943 15.0684 43.8125 14.8145C43.3372 14.5605 42.9368 14.2025 42.6113 13.7402C42.2858 13.2715 42.0254 12.7214 41.8301 12.0898C41.6348 11.4518 41.4883 10.7552 41.3906 10V9.44336C41.4883 8.68164 41.6348 7.98503 41.8301 7.35352C42.0254 6.72201 42.2858 6.17188 42.6113 5.70312C42.9368 5.23438 43.3372 4.87305 43.8125 4.61914C44.2878 4.36523 44.8477 4.23828 45.4922 4.23828C46.1823 4.23828 46.7845 4.37174 47.2988 4.63867C47.8197 4.89909 48.2493 5.27018 48.5879 5.75195C48.9329 6.22721 49.1901 6.79362 49.3594 7.45117C49.5352 8.10221 49.623 8.82161 49.623 9.60938ZM47.0352 9.81445V9.60938C47.0352 9.16016 46.9993 8.73698 46.9277 8.33984C46.8561 7.9362 46.7389 7.58138 46.5762 7.27539C46.4134 6.9694 46.1921 6.72852 45.9121 6.55273C45.6322 6.37695 45.2806 6.28906 44.8574 6.28906C44.4538 6.28906 44.1087 6.35742 43.8223 6.49414C43.5423 6.63086 43.3079 6.81966 43.1191 7.06055C42.9368 7.30143 42.7936 7.58464 42.6895 7.91016C42.5918 8.23568 42.5267 8.58724 42.4941 8.96484V10.4883C42.5397 10.9896 42.6471 11.4421 42.8164 11.8457C42.9857 12.2428 43.2363 12.5586 43.5684 12.793C43.9069 13.0273 44.3431 13.1445 44.877 13.1445C45.2936 13.1445 45.6419 13.0632 45.9219 12.9004C46.2018 12.7311 46.4232 12.4967 46.5859 12.1973C46.7487 11.8913 46.8626 11.5365 46.9277 11.1328C46.9993 10.7292 47.0352 10.2897 47.0352 9.81445ZM54.0762 6.5918V15H51.498V4.43359H53.9395L54.0762 6.5918ZM57.2891 4.36523L57.25 6.76758C57.1068 6.74154 56.944 6.72201 56.7617 6.70898C56.5859 6.69596 56.4199 6.68945 56.2637 6.68945C55.8665 6.68945 55.5182 6.74479 55.2188 6.85547C54.9193 6.95964 54.6686 7.11263 54.4668 7.31445C54.2715 7.51628 54.1217 7.76367 54.0176 8.05664C53.9134 8.3431 53.8548 8.66862 53.8418 9.0332L53.2852 8.96484C53.2852 8.29427 53.3535 7.67253 53.4902 7.09961C53.627 6.52669 53.8255 6.02539 54.0859 5.5957C54.3464 5.16602 54.6719 4.83398 55.0625 4.59961C55.4596 4.35872 55.9154 4.23828 56.4297 4.23828C56.5729 4.23828 56.7259 4.2513 56.8887 4.27734C57.0579 4.29688 57.1914 4.32617 57.2891 4.36523ZM63.2559 15.1953C62.4551 15.1953 61.7357 15.0651 61.0977 14.8047C60.4596 14.5443 59.916 14.1829 59.4668 13.7207C59.0241 13.252 58.6823 12.7083 58.4414 12.0898C58.207 11.4648 58.0898 10.7943 58.0898 10.0781V9.6875C58.0898 8.8737 58.207 8.13477 58.4414 7.4707C58.6758 6.80013 59.0078 6.22396 59.4375 5.74219C59.8672 5.26042 60.3815 4.88932 60.9805 4.62891C61.5794 4.36849 62.2402 4.23828 62.9629 4.23828C63.7116 4.23828 64.3724 4.36523 64.9453 4.61914C65.5182 4.86654 65.9967 5.2181 66.3809 5.67383C66.765 6.12956 67.0547 6.67643 67.25 7.31445C67.4453 7.94596 67.543 8.64583 67.543 9.41406V10.498H59.2617V8.7207H65.0039V8.52539C64.9909 8.11523 64.9128 7.74089 64.7695 7.40234C64.6263 7.05729 64.4049 6.78385 64.1055 6.58203C63.806 6.3737 63.4186 6.26953 62.9434 6.26953C62.5592 6.26953 62.224 6.35417 61.9375 6.52344C61.6576 6.6862 61.4232 6.92057 61.2344 7.22656C61.0521 7.52604 60.9154 7.88411 60.8242 8.30078C60.7331 8.71745 60.6875 9.17969 60.6875 9.6875V10.0781C60.6875 10.5208 60.7461 10.931 60.8633 11.3086C60.987 11.6862 61.166 12.015 61.4004 12.2949C61.6413 12.5684 61.9277 12.7832 62.2598 12.9395C62.5983 13.0892 62.9824 13.1641 63.4121 13.1641C63.9525 13.1641 64.4408 13.0599 64.877 12.8516C65.3197 12.6367 65.7038 12.321 66.0293 11.9043L67.3281 13.252C67.1068 13.5775 66.8073 13.89 66.4297 14.1895C66.0586 14.4889 65.6094 14.7331 65.082 14.9219C64.5547 15.1042 63.946 15.1953 63.2559 15.1953ZM75.082 12.1094C75.082 11.888 75.0234 11.6895 74.9062 11.5137C74.7891 11.3379 74.5677 11.1784 74.2422 11.0352C73.9232 10.8854 73.4544 10.7454 72.8359 10.6152C72.2891 10.498 71.7845 10.3516 71.3223 10.1758C70.86 10 70.4629 9.78841 70.1309 9.54102C69.7988 9.28711 69.5384 8.99089 69.3496 8.65234C69.1673 8.30729 69.0762 7.91016 69.0762 7.46094C69.0762 7.02474 69.1706 6.61458 69.3594 6.23047C69.5482 5.83984 69.8216 5.49805 70.1797 5.20508C70.5378 4.9056 70.974 4.67122 71.4883 4.50195C72.0026 4.32617 72.582 4.23828 73.2266 4.23828C74.125 4.23828 74.8965 4.38477 75.541 4.67773C76.1921 4.9707 76.6901 5.37435 77.0352 5.88867C77.3802 6.39648 77.5527 6.9694 77.5527 7.60742H74.9746C74.9746 7.32747 74.9095 7.07357 74.7793 6.8457C74.6556 6.61784 74.4635 6.43555 74.2031 6.29883C73.9427 6.1556 73.6139 6.08398 73.2168 6.08398C72.8587 6.08398 72.556 6.14258 72.3086 6.25977C72.0677 6.37695 71.8854 6.52995 71.7617 6.71875C71.638 6.90755 71.5762 7.11589 71.5762 7.34375C71.5762 7.51302 71.6087 7.66602 71.6738 7.80273C71.7454 7.93294 71.8594 8.05339 72.0156 8.16406C72.1719 8.27474 72.3835 8.37565 72.6504 8.4668C72.9238 8.55794 73.2591 8.64583 73.6562 8.73047C74.444 8.88672 75.1309 9.09505 75.7168 9.35547C76.3092 9.60938 76.7715 9.94792 77.1035 10.3711C77.4355 10.7943 77.6016 11.3346 77.6016 11.9922C77.6016 12.4609 77.5007 12.8906 77.2988 13.2812C77.097 13.6654 76.804 14.0007 76.4199 14.2871C76.0358 14.5736 75.5768 14.7982 75.043 14.9609C74.5091 15.1172 73.9069 15.1953 73.2363 15.1953C72.2663 15.1953 71.446 15.0228 70.7754 14.6777C70.1048 14.3262 69.597 13.8835 69.252 13.3496C68.9069 12.8092 68.7344 12.2493 68.7344 11.6699H71.2051C71.2246 12.0801 71.3353 12.4089 71.5371 12.6562C71.7389 12.9036 71.9928 13.0827 72.2988 13.1934C72.6113 13.2975 72.9401 13.3496 73.2852 13.3496C73.6758 13.3496 74.0046 13.2975 74.2715 13.1934C74.5384 13.0827 74.7402 12.9362 74.877 12.7539C75.0137 12.5651 75.082 12.3503 75.082 12.1094ZM84.3105 15.1953C83.5098 15.1953 82.7904 15.0651 82.1523 14.8047C81.5143 14.5443 80.9707 14.1829 80.5215 13.7207C80.0788 13.252 79.737 12.7083 79.4961 12.0898C79.2617 11.4648 79.1445 10.7943 79.1445 10.0781V9.6875C79.1445 8.8737 79.2617 8.13477 79.4961 7.4707C79.7305 6.80013 80.0625 6.22396 80.4922 5.74219C80.9219 5.26042 81.4362 4.88932 82.0352 4.62891C82.6341 4.36849 83.2949 4.23828 84.0176 4.23828C84.7663 4.23828 85.4271 4.36523 86 4.61914C86.5729 4.86654 87.0514 5.2181 87.4355 5.67383C87.8197 6.12956 88.1094 6.67643 88.3047 7.31445C88.5 7.94596 88.5977 8.64583 88.5977 9.41406V10.498H80.3164V8.7207H86.0586V8.52539C86.0456 8.11523 85.9674 7.74089 85.8242 7.40234C85.681 7.05729 85.4596 6.78385 85.1602 6.58203C84.8607 6.3737 84.4733 6.26953 83.998 6.26953C83.6139 6.26953 83.2786 6.35417 82.9922 6.52344C82.7122 6.6862 82.4779 6.92057 82.2891 7.22656C82.1068 7.52604 81.9701 7.88411 81.8789 8.30078C81.7878 8.71745 81.7422 9.17969 81.7422 9.6875V10.0781C81.7422 10.5208 81.8008 10.931 81.918 11.3086C82.0417 11.6862 82.2207 12.015 82.4551 12.2949C82.696 12.5684 82.9824 12.7832 83.3145 12.9395C83.653 13.0892 84.0371 13.1641 84.4668 13.1641C85.0072 13.1641 85.4954 13.0599 85.9316 12.8516C86.3743 12.6367 86.7585 12.321 87.084 11.9043L88.3828 13.252C88.1615 13.5775 87.862 13.89 87.4844 14.1895C87.1133 14.4889 86.6641 14.7331 86.1367 14.9219C85.6094 15.1042 85.0007 15.1953 84.3105 15.1953ZM100.951 8.66211H97.3184L97.2988 6.76758H100.414C100.948 6.76758 101.394 6.69271 101.752 6.54297C102.11 6.39323 102.38 6.17513 102.562 5.88867C102.751 5.60221 102.846 5.25391 102.846 4.84375C102.846 4.38802 102.758 4.01693 102.582 3.73047C102.413 3.44401 102.146 3.23568 101.781 3.10547C101.417 2.96875 100.954 2.90039 100.395 2.90039H98.1875V15H95.502V0.78125H100.395C101.202 0.78125 101.921 0.859375 102.553 1.01562C103.191 1.16536 103.731 1.39974 104.174 1.71875C104.617 2.03776 104.952 2.43815 105.18 2.91992C105.414 3.40169 105.531 3.97461 105.531 4.63867C105.531 5.22461 105.395 5.76497 105.121 6.25977C104.854 6.74805 104.441 7.14518 103.881 7.45117C103.327 7.75716 102.624 7.93294 101.771 7.97852L100.951 8.66211ZM100.834 15H96.5273L97.6504 12.8906H100.834C101.368 12.8906 101.807 12.8027 102.152 12.627C102.504 12.4512 102.764 12.2103 102.934 11.9043C103.109 11.5918 103.197 11.2337 103.197 10.8301C103.197 10.3874 103.119 10.0033 102.963 9.67773C102.813 9.35221 102.572 9.10156 102.24 8.92578C101.915 8.75 101.485 8.66211 100.951 8.66211H98.1582L98.1777 6.76758H101.732L102.348 7.5C103.168 7.50651 103.835 7.66927 104.35 7.98828C104.87 8.30729 105.255 8.71745 105.502 9.21875C105.749 9.72005 105.873 10.2604 105.873 10.8398C105.873 11.7513 105.674 12.5163 105.277 13.1348C104.887 13.7533 104.314 14.2188 103.559 14.5312C102.81 14.8438 101.902 15 100.834 15ZM110.58 6.5918V15H108.002V4.43359H110.443L110.58 6.5918ZM113.793 4.36523L113.754 6.76758C113.611 6.74154 113.448 6.72201 113.266 6.70898C113.09 6.69596 112.924 6.68945 112.768 6.68945C112.37 6.68945 112.022 6.74479 111.723 6.85547C111.423 6.95964 111.173 7.11263 110.971 7.31445C110.775 7.51628 110.626 7.76367 110.521 8.05664C110.417 8.3431 110.359 8.66862 110.346 9.0332L109.789 8.96484C109.789 8.29427 109.857 7.67253 109.994 7.09961C110.131 6.52669 110.329 6.02539 110.59 5.5957C110.85 5.16602 111.176 4.83398 111.566 4.59961C111.964 4.35872 112.419 4.23828 112.934 4.23828C113.077 4.23828 113.23 4.2513 113.393 4.27734C113.562 4.29688 113.695 4.32617 113.793 4.36523ZM114.477 9.82422V9.61914C114.477 8.8444 114.587 8.13151 114.809 7.48047C115.03 6.82292 115.352 6.25326 115.775 5.77148C116.199 5.28971 116.716 4.91536 117.328 4.64844C117.94 4.375 118.637 4.23828 119.418 4.23828C120.212 4.23828 120.915 4.375 121.527 4.64844C122.146 4.91536 122.667 5.28971 123.09 5.77148C123.513 6.25326 123.835 6.82292 124.057 7.48047C124.278 8.13151 124.389 8.8444 124.389 9.61914V9.82422C124.389 10.5924 124.278 11.3053 124.057 11.9629C123.835 12.6139 123.513 13.1836 123.09 13.6719C122.667 14.1536 122.149 14.528 121.537 14.7949C120.925 15.0618 120.225 15.1953 119.438 15.1953C118.656 15.1953 117.956 15.0618 117.338 14.7949C116.719 14.528 116.199 14.1536 115.775 13.6719C115.352 13.1836 115.03 12.6139 114.809 11.9629C114.587 11.3053 114.477 10.5924 114.477 9.82422ZM117.055 9.61914V9.82422C117.055 10.2865 117.1 10.7194 117.191 11.123C117.283 11.5267 117.423 11.8815 117.611 12.1875C117.8 12.4935 118.044 12.7344 118.344 12.9102C118.65 13.0794 119.014 13.1641 119.438 13.1641C119.854 13.1641 120.212 13.0794 120.512 12.9102C120.811 12.7344 121.055 12.4935 121.244 12.1875C121.439 11.8815 121.583 11.5267 121.674 11.123C121.765 10.7194 121.811 10.2865 121.811 9.82422V9.61914C121.811 9.16341 121.765 8.73698 121.674 8.33984C121.583 7.9362 121.439 7.58138 121.244 7.27539C121.055 6.96289 120.808 6.71875 120.502 6.54297C120.202 6.36068 119.841 6.26953 119.418 6.26953C119.001 6.26953 118.643 6.36068 118.344 6.54297C118.044 6.71875 117.8 6.96289 117.611 7.27539C117.423 7.58138 117.283 7.9362 117.191 8.33984C117.1 8.73698 117.055 9.16341 117.055 9.61914ZM130.6 13.1641C130.964 13.1641 131.29 13.0924 131.576 12.9492C131.863 12.806 132.09 12.6042 132.26 12.3438C132.436 12.0833 132.53 11.7806 132.543 11.4355H134.975C134.962 12.1517 134.76 12.793 134.369 13.3594C133.979 13.9258 133.458 14.375 132.807 14.707C132.162 15.0326 131.439 15.1953 130.639 15.1953C129.825 15.1953 129.115 15.0586 128.51 14.7852C127.904 14.5117 127.4 14.1309 126.996 13.6426C126.599 13.1543 126.299 12.5879 126.098 11.9434C125.902 11.2988 125.805 10.6087 125.805 9.87305V9.56055C125.805 8.82487 125.902 8.13477 126.098 7.49023C126.299 6.8457 126.599 6.2793 126.996 5.79102C127.4 5.30273 127.904 4.92188 128.51 4.64844C129.115 4.375 129.822 4.23828 130.629 4.23828C131.482 4.23828 132.23 4.4043 132.875 4.73633C133.526 5.06836 134.034 5.53711 134.398 6.14258C134.77 6.74805 134.962 7.46094 134.975 8.28125H132.543C132.53 7.90365 132.445 7.5651 132.289 7.26562C132.133 6.96615 131.911 6.72526 131.625 6.54297C131.339 6.36068 130.99 6.26953 130.58 6.26953C130.144 6.26953 129.779 6.36068 129.486 6.54297C129.2 6.72526 128.975 6.97591 128.812 7.29492C128.656 7.60742 128.546 7.95898 128.48 8.34961C128.422 8.73372 128.393 9.13737 128.393 9.56055V9.87305C128.393 10.3027 128.422 10.7129 128.48 11.1035C128.546 11.4941 128.656 11.8457 128.812 12.1582C128.975 12.4642 129.2 12.7083 129.486 12.8906C129.779 13.0729 130.15 13.1641 130.6 13.1641ZM141.029 13.1641C141.394 13.1641 141.719 13.0924 142.006 12.9492C142.292 12.806 142.52 12.6042 142.689 12.3438C142.865 12.0833 142.96 11.7806 142.973 11.4355H145.404C145.391 12.1517 145.189 12.793 144.799 13.3594C144.408 13.9258 143.887 14.375 143.236 14.707C142.592 15.0326 141.869 15.1953 141.068 15.1953C140.255 15.1953 139.545 15.0586 138.939 14.7852C138.334 14.5117 137.829 14.1309 137.426 13.6426C137.029 13.1543 136.729 12.5879 136.527 11.9434C136.332 11.2988 136.234 10.6087 136.234 9.87305V9.56055C136.234 8.82487 136.332 8.13477 136.527 7.49023C136.729 6.8457 137.029 6.2793 137.426 5.79102C137.829 5.30273 138.334 4.92188 138.939 4.64844C139.545 4.375 140.251 4.23828 141.059 4.23828C141.911 4.23828 142.66 4.4043 143.305 4.73633C143.956 5.06836 144.464 5.53711 144.828 6.14258C145.199 6.74805 145.391 7.46094 145.404 8.28125H142.973C142.96 7.90365 142.875 7.5651 142.719 7.26562C142.562 6.96615 142.341 6.72526 142.055 6.54297C141.768 6.36068 141.42 6.26953 141.01 6.26953C140.574 6.26953 140.209 6.36068 139.916 6.54297C139.63 6.72526 139.405 6.97591 139.242 7.29492C139.086 7.60742 138.975 7.95898 138.91 8.34961C138.852 8.73372 138.822 9.13737 138.822 9.56055V9.87305C138.822 10.3027 138.852 10.7129 138.91 11.1035C138.975 11.4941 139.086 11.8457 139.242 12.1582C139.405 12.4642 139.63 12.7083 139.916 12.8906C140.209 13.0729 140.58 13.1641 141.029 13.1641ZM146.664 9.82422V9.61914C146.664 8.8444 146.775 8.13151 146.996 7.48047C147.217 6.82292 147.54 6.25326 147.963 5.77148C148.386 5.28971 148.904 4.91536 149.516 4.64844C150.128 4.375 150.824 4.23828 151.605 4.23828C152.4 4.23828 153.103 4.375 153.715 4.64844C154.333 4.91536 154.854 5.28971 155.277 5.77148C155.701 6.25326 156.023 6.82292 156.244 7.48047C156.465 8.13151 156.576 8.8444 156.576 9.61914V9.82422C156.576 10.5924 156.465 11.3053 156.244 11.9629C156.023 12.6139 155.701 13.1836 155.277 13.6719C154.854 14.1536 154.337 14.528 153.725 14.7949C153.113 15.0618 152.413 15.1953 151.625 15.1953C150.844 15.1953 150.144 15.0618 149.525 14.7949C148.907 14.528 148.386 14.1536 147.963 13.6719C147.54 13.1836 147.217 12.6139 146.996 11.9629C146.775 11.3053 146.664 10.5924 146.664 9.82422ZM149.242 9.61914V9.82422C149.242 10.2865 149.288 10.7194 149.379 11.123C149.47 11.5267 149.61 11.8815 149.799 12.1875C149.988 12.4935 150.232 12.7344 150.531 12.9102C150.837 13.0794 151.202 13.1641 151.625 13.1641C152.042 13.1641 152.4 13.0794 152.699 12.9102C152.999 12.7344 153.243 12.4935 153.432 12.1875C153.627 11.8815 153.77 11.5267 153.861 11.123C153.952 10.7194 153.998 10.2865 153.998 9.82422V9.61914C153.998 9.16341 153.952 8.73698 153.861 8.33984C153.77 7.9362 153.627 7.58138 153.432 7.27539C153.243 6.96289 152.995 6.71875 152.689 6.54297C152.39 6.36068 152.029 6.26953 151.605 6.26953C151.189 6.26953 150.831 6.36068 150.531 6.54297C150.232 6.71875 149.988 6.96289 149.799 7.27539C149.61 7.58138 149.47 7.9362 149.379 8.33984C149.288 8.73698 149.242 9.16341 149.242 9.61914ZM161.186 0V15H158.598V0H161.186ZM166.381 4.43359V15H163.793V4.43359H166.381ZM163.617 1.66992C163.617 1.28581 163.747 0.966797 164.008 0.712891C164.275 0.458984 164.633 0.332031 165.082 0.332031C165.531 0.332031 165.886 0.458984 166.146 0.712891C166.413 0.966797 166.547 1.28581 166.547 1.66992C166.547 2.04753 166.413 2.36328 166.146 2.61719C165.886 2.87109 165.531 2.99805 165.082 2.99805C164.633 2.99805 164.275 2.87109 164.008 2.61719C163.747 2.36328 163.617 2.04753 163.617 1.66992Z" fill="#274C5B"/>
</svg>
