<svg width="26" height="24" viewBox="0 0 26 24" fill="none" xmlns="http://www.w3.org/2000/svg">
<path d="M10.7778 23.0001C11.4528 23.0001 12 22.4529 12 21.7779C12 21.1029 11.4528 20.5557 10.7778 20.5557C10.1027 20.5557 9.55554 21.1029 9.55554 21.7779C9.55554 22.4529 10.1027 23.0001 10.7778 23.0001Z" fill="white" stroke="white" stroke-width="1.5" stroke-linecap="round" stroke-linejoin="round"/>
<path d="M19.3333 23.0001C20.0083 23.0001 20.5555 22.4529 20.5555 21.7779C20.5555 21.1029 20.0083 20.5557 19.3333 20.5557C18.6583 20.5557 18.1111 21.1029 18.1111 21.7779C18.1111 22.4529 18.6583 23.0001 19.3333 23.0001Z" fill="white" stroke="white" stroke-width="1.5" stroke-linecap="round" stroke-linejoin="round"/>
<path d="M1 1H4.7819L7.61832 17.0731H22.7459" stroke="white" stroke-width="2" stroke-linecap="round" stroke-linejoin="round"/>
<path d="M7.11111 13.1837L22.3583 13.2907C22.4676 13.2908 22.5736 13.2529 22.6582 13.1837C22.7428 13.1144 22.8007 13.0179 22.8222 12.9107L24.524 4.40145C24.5378 4.33283 24.5361 4.26203 24.5191 4.19414C24.5022 4.12625 24.4704 4.06297 24.426 4.00886C24.3816 3.95476 24.3258 3.91118 24.2625 3.88128C24.1992 3.85138 24.1301 3.83589 24.0601 3.83594L5.56728 3.83594" stroke="white" stroke-width="2" stroke-linecap="round" stroke-linejoin="round"/>
</svg>
