<svg width="20" height="20" viewBox="0 0 20 20" fill="none" xmlns="http://www.w3.org/2000/svg">
<path d="M13.8392 2.26307C14.9037 2.26613 15.9238 2.67471 16.6765 3.39958C17.4293 4.12445 17.8536 5.1067 17.8567 6.13181V13.8685C17.8536 14.8936 17.4293 15.8758 16.6765 16.6007C15.9238 17.3256 14.9037 17.7342 13.8392 17.7372H5.80497C4.74042 17.7342 3.72039 17.3256 2.96765 16.6007C2.2149 15.8758 1.7906 14.8936 1.78742 13.8685V6.13181C1.7906 5.1067 2.2149 4.12445 2.96765 3.39958C3.72039 2.67471 4.74042 2.26613 5.80497 2.26307H13.8392ZM13.8392 0.71582H5.80497C2.71153 0.71582 0.180664 3.15296 0.180664 6.13181V13.8685C0.180664 16.8473 2.71153 19.2845 5.80497 19.2845H13.8392C16.9326 19.2845 19.4635 16.8473 19.4635 13.8685V6.13181C19.4635 3.15296 16.9326 0.71582 13.8392 0.71582Z" fill="#274C5B"/>
<path d="M15.0444 6.1326C14.806 6.1326 14.573 6.06454 14.3748 5.93702C14.1766 5.8095 14.0221 5.62824 13.9309 5.41618C13.8397 5.20412 13.8158 4.97078 13.8623 4.74565C13.9089 4.52053 14.0236 4.31374 14.1922 4.15144C14.3607 3.98913 14.5755 3.8786 14.8092 3.83382C15.043 3.78904 15.2854 3.81203 15.5056 3.89986C15.7258 3.9877 15.914 4.13645 16.0464 4.3273C16.1789 4.51815 16.2495 4.74253 16.2495 4.97206C16.2499 5.12456 16.2189 5.27562 16.1585 5.41657C16.0981 5.55752 16.0093 5.68559 15.8973 5.79342C15.7853 5.90125 15.6523 5.98673 15.506 6.04493C15.3596 6.10314 15.2027 6.13293 15.0444 6.1326ZM9.82208 6.90602C10.4577 6.90602 11.0791 7.08754 11.6077 7.42761C12.1362 7.76768 12.5481 8.25104 12.7914 8.81656C13.0346 9.38209 13.0983 10.0044 12.9743 10.6047C12.8503 11.2051 12.5442 11.7565 12.0947 12.1894C11.6452 12.6222 11.0725 12.917 10.4491 13.0364C9.82565 13.1558 9.17943 13.0945 8.59216 12.8603C8.00488 12.626 7.50293 12.2293 7.14978 11.7204C6.79663 11.2114 6.60813 10.6131 6.60813 10.0009C6.60905 9.18038 6.94795 8.39369 7.55048 7.81347C8.15302 7.23325 8.96997 6.9069 9.82208 6.90602ZM9.82208 5.35877C8.86864 5.35877 7.9366 5.63103 7.14384 6.14112C6.35108 6.65121 5.7332 7.37621 5.36833 8.22446C5.00346 9.0727 4.908 10.0061 5.094 10.9066C5.28001 11.8071 5.73914 12.6342 6.41333 13.2834C7.08752 13.9327 7.94648 14.3748 8.88161 14.5539C9.81673 14.733 10.786 14.6411 11.6669 14.2897C12.5478 13.9384 13.3006 13.3434 13.8304 12.58C14.3601 11.8166 14.6428 10.9191 14.6428 10.0009C14.6428 8.76976 14.1349 7.58901 13.2308 6.71843C12.3268 5.84786 11.1006 5.35877 9.82208 5.35877Z" fill="#274C5B"/>
</svg>
